nColumns=19
nRows=133
DataType=double
version=3
OpenSimVersion=4.1
endheader
time	ground_force_1_vx	ground_force_1_vy	ground_force_1_vz	ground_force_1_px	ground_force_1_py	ground_force_1_pz	ground_force_1_mx	ground_force_1_my	ground_force_1_mz	ground_force_2_vx	ground_force_2_vy	ground_force_2_vz	ground_force_2_px	ground_force_2_py	ground_force_2_pz	ground_force_2_mx	ground_force_2_my	ground_force_2_mz
0.52	0	0	0	0	0	0	0	0	0	0	0	0	0	0	0	0	0	0
0.53	-9.55558	22.0541	-4.13124	1.06652	0	-0.299462	0	-0.0348783	0	0	0	0	0	0	0	0	0	0
0.54	-23.2259	76.162	-10.6658	1.05337	0	-0.303788	0	2.23955	0	0	0	0	0	0	0	0	0	0
0.55	-34.0123	207.415	-20.6409	1.0494	0	-0.307763	0	4.71124	0	0	0	0	0	0	0	0	0	0
0.56	-28.9957	439.524	-29.8595	1.04193	0	-0.313227	0	6.63766	0	0	0	0	0	0	0	0	0	0
0.57	-24.2194	722.484	-30.0131	1.03237	0	-0.319057	0	7.36263	0	0	0	0	0	0	0	0	0	0
0.58	-48.0506	951.791	-17.5594	1.02666	0	-0.323945	0	6.64984	0	0	0	0	0	0	0	0	0	0
0.59	-103.418	1101.51	-1.03666	1.02383	0	-0.327988	0	4.80811	0	0	0	0	0	0	0	0	0	0
0.6	-156.054	1235.91	9.41519	1.01655	0	-0.331745	0	2.50536	0	0	0	0	0	0	0	0	0	0
0.61	-173.551	1398.36	15.0664	1.00033	0	-0.334216	0	0.434593	0	0	0	0	0	0	0	0	0	0
0.62	-157.281	1566.76	21.3406	0.978491	0	-0.334987	0	-0.92879	0	0	0	0	0	0	0	0	0	0
0.63	-122.885	1697.58	27.1695	0.955989	0	-0.335216	0	-1.41393	0	0	0	0	0	0	0	0	0	0
0.64	-85.7669	1770.09	29.868	0.934932	0	-0.335718	0	-1.14788	0	0	0	0	0	0	0	0	0	0
0.65	-49.5137	1788.5	30.9452	0.9143	0	-0.3362	0	-0.480371	0	0	0	0	0	0	0	0	0	0
0.66	-11.5189	1763.05	32.4253	0.893017	0	-0.336571	0	0.157878	0	0	0	0	0	0	0	0	0	0
0.67	28.9167	1699.59	34.7145	0.871539	0	-0.337117	0	0.416215	0	0	0	0	0	0	0	0	0	0
0.68	71.3663	1603.35	38.3546	0.849707	0	-0.337923	0	0.142295	0	0	0	0	0	0	0	0	0	0
0.69	113.519	1478.72	43.463	0.826954	0	-0.33905	0	-0.578769	0	0	0	0	0	0	0	0	0	0
0.7	148.278	1327.54	48.5246	0.803983	0	-0.340595	0	-1.47551	0	0	0	0	0	0	0	0	0	0
0.71	171.699	1154.58	51.1348	0.781317	0	-0.342508	0	-2.21125	0	0	0	0	0	0	0	0	0	0
0.72	184.341	969.113	50.0016	0.758347	0	-0.344425	0	-2.52032	0	0	0	0	0	0	0	0	0	0
0.73	183.816	782.527	45.8426	0.735203	0	-0.345801	0	-2.2974	0	0	0	0	0	0	0	0	0	0
0.74	167.81	606.774	39.9871	0.713045	0	-0.346454	0	-1.61102	0	0	0	0	0	0	0	0	0	0
0.75	141.929	451.833	33.1538	0.692373	0	-0.346752	0	-0.658263	0	0	0	0	0	0	0	0	0	0
0.76	114.794	322.719	26.0592	0.673277	0	-0.346604	0	0.307192	0	0	0	0	0	0	0	0	0	0
0.77	89.8439	219.357	19.6831	0.657353	0	-0.344768	0	1.05203	0	0	0	0	0	0	0	0	0	0
0.78	66.329	139.093	14.298	0.646299	0	-0.340069	0	1.42826	0	0	0	0	0	0	0	0	0	0
0.79	43.6324	79.336	9.54715	0.642418	0	-0.3327	0	1.40861	0	0	0	0	0	0	0	0	0	0
0.8	23.5642	38.9939	5.54686	0.658021	0	-0.321544	0	1.08666	0	0	0	0	0	0	0	0	0	0
0.81	9.34397	16.2054	2.83419	0.722868	0	-0.299373	0	0.648754	0	0	0	0	0	0	0	0	0	0
0.82	0	0	0	0	0	0	0	0	0	0	0	0	0	0	0	0	0	0
0.83	0	0	0	0	0	0	0	0	0	0	0	0	0	0	0	0	0	0
0.84	0	0	0	0	0	0	0	0	0	0	0	0	0	0	0	0	0	0
0.85	0	0	0	0	0	0	0	0	0	0	0	0	0	0	0	0	0	0
0.86	0	0	0	0	0	0	0	0	0	0	0	0	0	0	0	0	0	0
0.87	0	0	0	0	0	0	0	0	0	0	0	0	0	0	0	0	0	0
0.88	0	0	0	0	0	0	0	0	0	-5.02611	12.4974	0.771524	0.737959	0	-0.244576	0	0.597539	0
0.89	0	0	0	0	0	0	0	0	0	-19.7068	55.9029	3.44702	1.09216	0	-0.373867	0	-0.674493	0
0.9	0	0	0	0	0	0	0	0	0	-38.7753	168.844	10.0252	1.1078	0	-0.382183	0	-3.05021	0
0.91	0	0	0	0	0	0	0	0	0	-49.8865	392.781	21.9164	1.10676	0	-0.380484	0	-5.46346	0
0.92	0	0	0	0	0	0	0	0	0	-58.3342	697.571	34.7636	1.09998	0	-0.374312	0	-7.1327	0
0.93	0	0	0	0	0	0	0	0	0	-86.8872	962.366	37.5965	1.09568	0	-0.368708	0	-7.49879	0
0.94	0	0	0	0	0	0	0	0	0	-138.512	1108.87	24.6912	1.09284	0	-0.368016	0	-6.54231	0
0.95	0	0	0	0	0	0	0	0	0	-197.165	1201.45	7.47633	1.0857	0	-0.370661	0	-4.78877	0
0.96	0	0	0	0	0	0	0	0	0	-230.244	1338.53	1.56297	1.06946	0	-0.370459	0	-2.96191	0
0.97	0	0	0	0	0	0	0	0	0	-217.035	1521.46	5.88912	1.04557	0	-0.367932	0	-1.57394	0
0.98	0	0	0	0	0	0	0	0	0	-176.017	1675.72	9.20865	1.02157	0	-0.367188	0	-0.768403	0
0.99	0	0	0	0	0	0	0	0	0	-139.006	1754.93	8.45986	1.00107	0	-0.368319	0	-0.417134	0
1	0	0	0	0	0	0	0	0	0	-108.02	1768.74	7.69409	0.981367	0	-0.369487	0	-0.264148	0
1.01	0	0	0	0	0	0	0	0	0	-73.5005	1736.61	8.44461	0.960785	0	-0.370423	0	-0.0097372	0
1.02	0	0	0	0	0	0	0	0	0	-37.4334	1668.1	9.35271	0.940437	0	-0.371573	0	0.62791	0
1.03	0	0	0	0	0	0	0	0	0	3.64036	1575.38	8.3868	0.919604	0	-0.372507	0	1.83165	0
1.04	0	0	0	0	0	0	0	0	0	52.1554	1463.93	3.83127	0.89688	0	-0.372607	0	3.59787	0
1.05	0	0	0	0	0	0	0	0	0	96.9094	1328.9	-4.32785	0.873319	0	-0.371891	0	5.69172	0
1.06	0	0	0	0	0	0	0	0	0	128.513	1172.08	-14.1971	0.850435	0	-0.370804	0	7.69086	0
1.07	0	0	0	0	0	0	0	0	0	147.136	1004.84	-22.5763	0.828278	0	-0.369633	0	9.11875	0
1.08	0	0	0	0	0	0	0	0	0	154.084	836.658	-26.4408	0.806807	0	-0.368304	0	9.61655	0
1.09	0	0	0	0	0	0	0	0	0	149.535	673.583	-25.4173	0.786119	0	-0.36682	0	9.07405	0
1.1	0	0	0	0	0	0	0	0	0	135.055	522.035	-21.7225	0.765692	0	-0.36604	0	7.65624	0
1.11	0	0	0	0	0	0	0	0	0	114.646	389.475	-16.8989	0.745176	0	-0.366635	0	5.72528	0
1.12	0	0	0	0	0	0	0	0	0	92.2301	279.859	-11.0535	0.726136	0	-0.36749	0	3.71471	0
1.13	0	0	0	0	0	0	0	0	0	71.0647	190.939	-5.23189	0.70981	0	-0.367045	0	2.0079	0
1.14	0	0	0	0	0	0	0	0	0	51.3152	119.143	-1.29458	0.698861	0	-0.365155	0	0.842525	0
1.15	0	0	0	0	0	0	0	0	0	32.1529	64.9244	0.320324	0.701767	0	-0.360039	0	0.260092	0
1.16	0	0	0	0	0	0	0	0	0	15.6754	29.9753	0.740312	0.751641	0	-0.344609	0	0.120541	0
1.17	0	0	0	0	0	0	0	0	0	4.30066	9.71449	0.688112	0.629636	0	-0.215052	0	0.116976	0
1.18	0	0	0	0	0	0	0	0	0	0	0	0	0	0	0	0	0	0
1.19	0	0	0	0	0	0	0	0	0	0	0	0	0	0	0	0	0	0
1.2	0	0	0	0	0	0	0	0	0	0	0	0	0	0	0	0	0	0
1.21	0	0	0	0	0	0	0	0	0	0	0	0	0	0	0	0	0	0
1.22	0	0	0	0	0	0	0	0	0	0	0	0	0	0	0	0	0	0
1.23	0	0	0	0	0	0	0	0	0	0	0	0	0	0	0	0	0	0
1.24	-1.86288	3.56636	-0.73915	0.329848	0	-0.0819604	0	-0.195455	0	0	0	0	0	0	0	0	0	0
1.25	-13.5807	31.8774	-5.516	1.10157	0	-0.28131	0	0.392386	0	0	0	0	0	0	0	0	0	0
1.26	-30.958	107.017	-13.2606	1.11357	0	-0.287259	0	2.40261	0	0	0	0	0	0	0	0	0	0
1.27	-44.2757	279.605	-24.2321	1.11556	0	-0.290773	0	4.49414	0	0	0	0	0	0	0	0	0	0
1.28	-44.9652	562.472	-33.4472	1.10764	0	-0.295005	0	6.01999	0	0	0	0	0	0	0	0	0	0
1.29	-54.9314	871.8	-33.6733	1.09818	0	-0.29947	0	6.47366	0	0	0	0	0	0	0	0	0	0
1.3	-96.7255	1087.93	-24.5319	1.09301	0	-0.303199	0	5.75112	0	0	0	0	0	0	0	0	0	0
1.31	-161.345	1211.85	-15.388	1.08953	0	-0.306384	0	4.19208	0	0	0	0	0	0	0	0	0	0
1.32	-210.578	1330.98	-12.5127	1.08025	0	-0.309046	0	2.37209	0	0	0	0	0	0	0	0	0	0
1.33	-219.94	1485.01	-11.8286	1.06197	0	-0.310099	0	0.831639	0	0	0	0	0	0	0	0	0	0
1.34	-199.28	1639.61	-9.6534	1.03946	0	-0.30985	0	-0.0839313	0	0	0	0	0	0	0	0	0	0
1.35	-168.306	1747.1	-8.36237	1.01793	0	-0.309517	0	-0.272591	0	0	0	0	0	0	0	0	0	0
1.36	-139.618	1790.45	-9.29272	0.998404	0	-0.309323	0	0.132899	0	0	0	0	0	0	0	0	0	0
1.37	-108.511	1779.5	-10.3333	0.978658	0	-0.308881	0	0.829294	0	0	0	0	0	0	0	0	0	0
1.38	-70.6944	1728.12	-9.94746	0.957646	0	-0.308332	0	1.45995	0	0	0	0	0	0	0	0	0	0
1.39	-30.5338	1642.07	-7.74305	0.936471	0	-0.308016	0	1.73912	0	0	0	0	0	0	0	0	0	0
1.4	11.0563	1526.77	-3.40461	0.915092	0	-0.308171	0	1.53795	0	0	0	0	0	0	0	0	0	0
1.41	55.8054	1387.03	3.00469	0.892207	0	-0.308931	0	0.911644	0	0	0	0	0	0	0	0	0	0
1.42	96.486	1224.87	10.6188	0.868241	0	-0.31015	0	0.0667829	0	0	0	0	0	0	0	0	0	0
1.43	124.34	1047.34	17.6255	0.844675	0	-0.31163	0	-0.71906	0	0	0	0	0	0	0	0	0	0
1.44	137.548	865.536	22.2418	0.821983	0	-0.313207	0	-1.20032	0	0	0	0	0	0	0	0	0	0
1.45	137.362	688.6	23.9329	0.800556	0	-0.314492	0	-1.25069	0	0	0	0	0	0	0	0	0	0
1.46	125.428	524.449	23.0774	0.781042	0	-0.315241	0	-0.898946	0	0	0	0	0	0	0	0	0	0
1.47	106.403	381.901	20.4042	0.762855	0	-0.315562	0	-0.303337	0	0	0	0	0	0	0	0	0	0
1.48	85.9718	266.649	17.143	0.744854	0	-0.315009	0	0.318599	0	0	0	0	0	0	0	0	0	0
1.49	66.8942	177.423	14.2144	0.728591	0	-0.312699	0	0.773434	0	0	0	0	0	0	0	0	0	0
1.5	49.6418	109.814	11.3294	0.716102	0	-0.308148	0	0.953711	0	0	0	0	0	0	0	0	0	0
1.51	33.7482	61.1292	8.03538	0.707811	0	-0.299787	0	0.858814	0	0	0	0	0	0	0	0	0	0
1.52	19.1975	29.4744	4.85318	0.706893	0	-0.282751	0	0.581563	0	0	0	0	0	0	0	0	0	0
1.53	5.77264	8.46768	1.76099	0.43401	0	-0.155688	0	0.196588	0	0	0	0	0	0	0	0	0	0
1.54	0	0	0	0	0	0	0	0	0	0	0	0	0	0	0	0	0	0
1.55	0	0	0	0	0	0	0	0	0	0	0	0	0	0	0	0	0	0
1.56	0	0	0	0	0	0	0	0	0	0	0	0	0	0	0	0	0	0
1.57	0	0	0	0	0	0	0	0	0	0	0	0	0	0	0	0	0	0
1.58	0	0	0	0	0	0	0	0	0	0	0	0	0	0	0	0	0	0
1.59	0	0	0	0	0	0	0	0	0	0	0	0	0	0	0	0	0	0
1.6	0	0	0	0	0	0	0	0	0	-4.86904	19.1281	1.95078	0.984368	0	-0.312795	0	-0.310697	0
1.61	0	0	0	0	0	0	0	0	0	-13.5024	74.3491	4.35772	1.09302	0	-0.358329	0	-2.03549	0
1.62	0	0	0	0	0	0	0	0	0	-18.6163	208.102	9.38564	1.09817	0	-0.359713	0	-4.12546	0
1.63	0	0	0	0	0	0	0	0	0	-18.3048	447.882	16.438	1.09783	0	-0.357167	0	-5.92125	0
1.64	0	0	0	0	0	0	0	0	0	-37.2015	750.084	20.717	1.09652	0	-0.3524	0	-6.78146	0
1.65	0	0	0	0	0	0	0	0	0	-89.1041	1003.17	15.2326	1.09827	0	-0.34888	0	-6.36835	0
1.66	0	0	0	0	0	0	0	0	0	-153.524	1155.05	-0.302521	1.09789	0	-0.349676	0	-4.84618	0
1.67	0	0	0	0	0	0	0	0	0	-206.878	1278.07	-14.9945	1.08863	0	-0.352522	0	-2.79469	0
1.68	0	0	0	0	0	0	0	0	0	-229.631	1447.5	-19.3499	1.0698	0	-0.352911	0	-0.883389	0
1.69	0	0	0	0	0	0	0	0	0	-214.778	1637.48	-16.5692	1.04637	0	-0.352163	0	0.441713	0
1.7	0	0	0	0	0	0	0	0	0	-178.022	1776.5	-13.5332	1.0233	0	-0.353007	0	1.06193	0
1.71	0	0	0	0	0	0	0	0	0	-139.743	1838.22	-10.6429	1.0017	0	-0.355011	0	1.11805	0
1.72	0	0	0	0	0	0	0	0	0	-101.744	1837.71	-6.24157	0.980429	0	-0.356945	0	0.904064	0
1.73	0	0	0	0	0	0	0	0	0	-64.9474	1787.29	-0.946683	0.959765	0	-0.358883	0	0.771898	0
1.74	0	0	0	0	0	0	0	0	0	-29.4789	1695.48	4.05809	0.939671	0	-0.360902	0	1.0364	0
1.75	0	0	0	0	0	0	0	0	0	12.6883	1577.81	7.08548	0.918099	0	-0.362556	0	1.88179	0
1.76	0	0	0	0	0	0	0	0	0	59.0259	1440.62	6.42099	0.894401	0	-0.363531	0	3.28946	0
1.77	0	0	0	0	0	0	0	0	0	96.6639	1281.78	1.65935	0.870486	0	-0.363886	0	5.01928	0
1.78	0	0	0	0	0	0	0	0	0	121.805	1105.54	-5.92283	0.847349	0	-0.363957	0	6.67009	0
1.79	0	0	0	0	0	0	0	0	0	136.557	923.005	-13.2009	0.82418	0	-0.363872	0	7.81231	0
1.8	0	0	0	0	0	0	0	0	0	139.288	745.314	-17.0275	0.801377	0	-0.363282	0	8.14596	0
1.81	0	0	0	0	0	0	0	0	0	128.934	580.273	-17.3041	0.780208	0	-0.36231	0	7.60862	0
1.82	0	0	0	0	0	0	0	0	0	110.326	433.703	-16.158	0.760595	0	-0.362138	0	6.37684	0
1.83	0	0	0	0	0	0	0	0	0	89.3968	310.633	-14.4195	0.74317	0	-0.362628	0	4.77508	0
1.84	0	0	0	0	0	0	0	0	0	69.4238	211.771	-11.8579	0.730084	0	-0.361589	0	3.15756	0
